<?xml version="1.0" encoding="UTF-8"?><svg id="b" xmlns="http://www.w3.org/2000/svg" xmlns:xlink="http://www.w3.org/1999/xlink" viewBox="0 0 72 45.3361805979"><defs><style>.k{fill:#080808;}.l,.m{fill:#fff;}.n{fill:url(#h);}.o{fill:none;stroke:#fff;stroke-miterlimit:10;}.m{fill-rule:evenodd;}.p{fill:url(#g);}.q{fill:url(#f);}</style><linearGradient id="f" x1="19.0981666347" y1="40.2224110861" x2="32.608228263" y2="33.4081256157" gradientUnits="userSpaceOnUse"><stop offset=".0074764221" stop-color="#080808" stop-opacity="0"/><stop offset=".1448388891" stop-color="#080808" stop-opacity=".1000000015"/><stop offset=".2490719582" stop-color="#080808" stop-opacity=".25"/><stop offset=".3767375185" stop-color="#080808" stop-opacity=".5"/><stop offset=".5409554644" stop-color="#080808" stop-opacity=".6999999881"/><stop offset=".9407276378" stop-color="#080808"/></linearGradient><linearGradient id="g" x1="25.3779619611" y1="26.7106851461" x2="34.1904619611" y2="32.5231851461" gradientUnits="userSpaceOnUse"><stop offset="0" stop-color="#080808" stop-opacity="0"/><stop offset=".1342401521" stop-color="#080808" stop-opacity=".1000000015"/><stop offset=".2737888549" stop-color="#080808" stop-opacity=".2399999946"/><stop offset=".4534628361" stop-color="#080808" stop-opacity=".5"/><stop offset=".6713833445" stop-color="#080808" stop-opacity=".6999999881"/><stop offset=".8294922613" stop-color="#080808"/></linearGradient><linearGradient id="h" x1="21.1190707063" y1="15.7113769679" x2="34.1336030679" y2="9.1470295048" gradientTransform="translate(0 20.8747323428) scale(1 -1)" xlink:href="#f"/></defs><g id="c"><rect class="k" width="72" height="45.3361805979"/></g><g id="d"><g id="e"><path class="m" d="M5.138934328,29.7350506774c-.1214161034.2228481447.0215699763.5087198926.2543850508.5087198926h25.0984652791c.2152540835,0,.3595519687-.2480894724.2729436677-.4689319583l-7.7288931-19.699275533c-.1062864484-.2712278876-.4515283295-.264657681-.5496148389.0104818791l-6.1267426981,10.0367510649c-.0395041441.1108389557-.0272420269.215020379.0384968039.3089738557l2.5403965389,3.4347052329c.3047707743.4162486075-.0440994764.4180768812-.083225112.339461112l-5.9164365731-7.919766933c-.128408371-.1832260201-.3804370766-.1666753491-.4888246883.0322643222l-7.31095033,13.4166170649Z"/></g><circle class="o" cx="18.7788379006" cy="22.6462584878" r="17.531953463"/><rect class="k" x="30.6050176253" y="7.1599874641" width="8.5025735294" height="33.9180954723"/><polygon class="q" points="26.8155468445 32.7794718253 16.2638411547 37.5440277589 21.5396939996 43.0989162697 34.940924488 35.0895595507 26.8155468445 32.7794718253"/><polygon class="p" points="26.5157202397 30.2878460083 22.317803573 30.24377057 25.3282202397 26.3086793416 28.0849467492 22.9446554328 30.9532202397 30.24377057 26.5157202397 30.2878460083"/><polygon class="n" points="28.1854137201 12.5567087727 18.5045274292 7.5138672501 22.9095608752 2.2372643282 36.3107913637 10.2466210473 28.1854137201 12.5567087727"/><g id="i"><path class="l" d="M22.7338108685,8.5531725695c.0280067745,0,.0507112064.0227044239.0507112064.0507112064v.1250876361l.116342985-.0232683165c.1116004807-.0223203734.2272829056-.0116994227.3329515644.0305687017l.0279452258.0111781129c.0963445345.0385364661.2023782939.0457334051.3030434228.0205664458.0426650634-.0106655888.0769254604.0355749077.0543015995.0732851256l-.0864458054.1440799964c-.0230904573.0384837193-.034639039.0577255628-.0373774875.0786550781-.0011359261.0087304972-.0011359261.0175731297,0,.0263036269.0027384485.0209295153.0142870302.0401713266.0373774875.0786557229l.1055198974.1758732878c.0210147613.0350245162.0022245219.0804008809-.0374045702.0903065096l-.0067682262.0016903478c-.1196513955.0299128489-.2456788982.0213595499-.3601915437-.0244427871-.1056686588-.0422728801-.2213510837-.0528883981-.3329515644-.0305687017l-.116342985.0232663014v.551061751c0,.0280060974-.022704432.0507112064-.0507112064.0507112064s-.0507112065-.0227051091-.0507112065-.0507112064v-1.3522988387c0-.0280067825.022704432-.0507112064.0507112065-.0507112064Z"/></g><g id="j"><path class="l" d="M8.0781860931,21.9814101047c-.0124949389.0256232679-.0215926318.0540104133-.0263718045.0845280698-.0021304796.0151436757-.0035123858.0304599975-.00351238.0456612212l.2611767881.9142671511-.0302798276.6839585759c-.008349152.0153163244-.0145678314.0331663317-.0173316825.0519375575-.013243462.0859100043.0458916492.1656011989.1321470972.1787870845.0667932662.0103644654.130765088-.0235504584.1613978465-.0798065953l.054521133-.732326135c.0055276977-.0131859204.0104796329-.0270628651.0124949326-.0422640896l.0014394801-.0214200065-.2521365872-.6477275812.409339241.1780385161.0661025071.4218340423c.0131859416.0616685607.0639718767.1109573111.1300742281.121264228.0862554065.0124373122.1662346745-.0464674049.1795356582-.1315712871.0020152999-.0145677486.0020152944-.0291357161.0006333498-.0429548901l-.080670288-.509241073c-.0097311433-.0491736684-.042379217-.0914376311-.0883284085-.1129727172l-.3658659668-.1619159793.232970143-.403869053.1155639286.1461965818c.0118039838.013128365.0271204191.0242413135.0444520484.031151004l.4403750355.1281162589c.0585017404.0124948715.1183277453-.0179075985.1411871084-.0740484152.0257383366-.0637415395-.0047792356-.1357745843-.068117714-.1613978235l-.006276222-.0020728518-.3826218673-.1122240324-.2880172583-.3442731443c-.0431277731-.0457188072-.1008809476-.0782517456-.1676165553-.0887313634-.1168882155-.0172740886-.2278456397.0381182979-.286289736.1323199009,0,0-.3199741174.5507566263-.3199742273.5507568459ZM8.8270765596,21.267815759c.1300741822-.0000000492.2357916836-.1052570755.2357916345-.2348129892-.0000575978-.1294983374-.1057177399-.2348704362-.2357918123-.234870387s-.2358493421.105372228-.2358492931.2348705655c-.0000575547.1295559137.1057177399.23481286.2358494709.2348128107ZM8.3578538346,21.3045522638c.0180802429-.0318419424.0076005841-.0734149987-.0250475354-.0914376925l-.1141244102-.0665053105c-.0326481195-.0180226664-.073760511-.0076005839-.0925316959.0249323559l-.3519312125.6048247295c-.0180802361.0318419424-.0076581674.0727240839.0249899317.0914376376l.1148153523.0658718893c.0319571226.0186560052.0730695413.0076005842.0917831502-.0242990171,0,0,.3520463649-.6048247021.3520464199-.6048245923Z"/></g><path class="l" d="M35.6002835311,12.8979867937v-2.1333007812c0-.7465820312-.2348632812-1.1733398438-.9384765625-1.1733398438-.7680664062,0-.9389648438.4267578125-.9389648438,1.1733398438,0,2.5600585938,5.41796875,3.306640625,5.41796875,7.9995117188,0,2.8583984375-1.5361328125,4.1811523438-4.5004882812,4.1811523438-2.2612304688,0-4.4584960938-.7680664062-4.4584960938-3.3920898438v-2.8154296875h3.541015625v2.6235351562c0,.8959960938.27734375,1.1518554688.9389648438,1.1518554688.5756835938,0,.9384765625-.255859375.9384765625-1.1518554688,0-3.4345703125-5.4184570312-3.4985351562-5.4184570312-8.4047851562,0-2.7514648438,1.8134765625-3.796875,4.5439453125-3.796875,2.388671875,0,4.4150390625.810546875,4.4150390625,3.3491210938v2.3891601562h-3.5405273437Z"/><path class="l" d="M47.2892483749,7.4585336687l1.9619140625,15.1879882812h-3.51953125l-.4052734375-3.7329101562h-1.919921875l-.576171875,3.7329101562h-2.9853515625l2.5810546875-15.1879882812h4.86328125ZM45.0704983749,16.609412575l-.6181640625-6.7622070312h-.04296875l-.619140625,6.7622070312h1.2802734375Z"/><path class="l" d="M57.1867093124,7.4585336687l1.9619140625,15.1879882812h-3.51953125l-.4052734375-3.7329101562h-1.919921875l-.576171875,3.7329101562h-2.986328125l2.5810546875-15.1879882812h4.8642578125ZM54.9679593124,16.609412575l-.6181640625-6.7622070312h-.04296875l-.619140625,6.7622070312h1.2802734375Z"/><path class="l" d="M65.2921780624,12.8979867937v-2.1333007812c0-.7465820312-.234375-1.1733398438-.9384765625-1.1733398438-.7685546875,0-.9384765625.4267578125-.9384765625,1.1733398438,0,2.5600585938,5.41796875,3.306640625,5.41796875,7.9995117188,0,2.8583984375-1.5361328125,4.1811523438-4.5009765625,4.1811523438-2.26171875,0-4.4580078125-.7680664062-4.4580078125-3.3920898438v-2.8154296875h3.541015625v2.6235351562c0,.8959960938.27734375,1.1518554688.9384765625,1.1518554688.576171875,0,.9384765625-.255859375.9384765625-1.1518554688,0-3.4345703125-5.41796875-3.4985351562-5.41796875-8.4047851562,0-2.7514648438,1.8125-3.796875,4.54296875-3.796875,2.3896484375,0,4.416015625.810546875,4.416015625,3.3491210938v2.3891601562h-3.541015625Z"/><path class="l" d="M39.1408108749,34.5132211687v2.005859375c0,2.8369140625-1.5146484375,4.2021484375-4.5004882812,4.2021484375-2.3466796875,0-4.4584960938-.9599609375-4.4584960938-4.4375v-6.9111328125c0-3.4770507812,2.1118164062-4.4370117188,4.4584960938-4.4370117188,2.5805664062,0,4.5004882812.7680664062,4.5004882812,4.0532226562v1.6635742188h-3.5405273437v-2.0903320312c0-.6186523438-.1918945312-1.1948242188-.9599609375-1.1948242188-.7255859375,0-.9174804688.576171875-.9174804688,1.1948242188v8.5322265625c0,.619140625.1918945312,1.1953125.9174804688,1.1953125.7680664062,0,.9599609375-.576171875.9599609375-1.1953125l.0209960938-2.5810546875h3.51953125Z"/><path class="l" d="M40.1007718124,40.4224008562v-15.1884765625h3.3701171875v15.1884765625h-3.3701171875Z"/><path class="l" d="M49.2091702499,38.9927133562h-.04296875c-.4052734375.875-1.0244140625,1.5791015625-2.3681640625,1.5791015625-1.4716796875,0-2.3671875-.896484375-2.3671875-2.49609375v-1.8134765625c0-3.19921875,4.7783203125-2.8154296875,4.7783203125-5.0766601563,0-.4907226562-.1494140625-.8959960938-.7041015625-.8959960938s-.7041015625.4052734375-.7041015625.8959960938v1.3442382813h-3.3701171875v-1.130859375c0-2.453125,2.0478515625-3.3276367188,4.07421875-3.3276367188s4.07421875.8745117188,4.07421875,3.3276367188v9.0234375h-3.3701171875v-1.4296875ZM47.8009671249,37.2866586687c0,.4267578125.298828125.6396484375.6181640625.6396484375.7041015625,0,.7900390625-.46875.7900390625-1.556640625v-2.1123046875c-.662109375.4697265625-1.408203125.7470703125-1.408203125,1.70703125v1.322265625Z"/><path class="l" d="M58.2960843124,32.5298227312v-1.3227539063c0-.5122070312-.1708984375-.9174804688-.7041015625-.9174804688s-.7041015625.4052734375-.7041015625.9174804688c0,2.0903320313,4.7138671875,1.7065429688,4.7138671875,5.6743164063,0,2.41015625-1.4501953125,3.6904296875-4.265625,3.6904296875-2.1552734375,0-3.818359375-.83203125-3.818359375-3.029296875v-1.94140625h3.3701171875v1.8349609375c0,.51171875.1708984375.9169921875.7041015625.9169921875s.7041015625-.4052734375.7041015625-.9169921875c0-2.9013671875-4.7783203125-2.0048828125-4.7783203125-5.9731445313,0-2.431640625,1.7275390625-3.3916015625,3.9462890625-3.3916015625,2.5595703125,0,4.2021484375,1.0024414062,4.2021484375,3.0502929688v1.408203125h-3.3701171875Z"/><path class="l" d="M67.3829983749,32.5298227312v-1.3227539063c0-.5122070312-.1708984375-.9174804688-.7041015625-.9174804688s-.7041015625.4052734375-.7041015625.9174804688c0,2.0903320313,4.7138671875,1.7065429688,4.7138671875,5.6743164063,0,2.41015625-1.4501953125,3.6904296875-4.265625,3.6904296875-2.1552734375,0-3.818359375-.83203125-3.818359375-3.029296875v-1.94140625h3.3701171875v1.8349609375c0,.51171875.1708984375.9169921875.7041015625.9169921875s.7041015625-.4052734375.7041015625-.9169921875c0-2.9013671875-4.7783203125-2.0048828125-4.7783203125-5.9731445313,0-2.431640625,1.7275390625-3.3916015625,3.9462890625-3.3916015625,2.5595703125,0,4.2021484375,1.0024414062,4.2021484375,3.0502929688v1.408203125h-3.3701171875Z"/></g></svg>